<svg width="24" height="20" viewBox="0 0 24 20" fill="none" xmlns="http://www.w3.org/2000/svg">
<path d="M22.0002 18.3333V16.4815C21.9996 15.6608 21.7315 14.8637 21.2378 14.2151C20.7442 13.5665 20.0531 13.1033 19.2729 12.8981" stroke="#3F444D" stroke-linecap="round" stroke-linejoin="round"/>
<path d="M16.5455 18.3333V16.4815C16.5455 15.4992 16.1623 14.5571 15.4804 13.8626C14.7984 13.168 13.8735 12.7778 12.9091 12.7778H5.63636C4.67194 12.7778 3.74702 13.168 3.06507 13.8626C2.38312 14.5571 2 15.4992 2 16.4815V18.3333" stroke="#3F444D" stroke-linecap="round" stroke-linejoin="round"/>
<path d="M15.6362 1.78705C16.4184 1.99103 17.1117 2.45436 17.6068 3.104C18.1019 3.75364 18.3706 4.55263 18.3706 5.37501C18.3706 6.19739 18.1019 6.99638 17.6068 7.64602C17.1117 8.29566 16.4184 8.75899 15.6362 8.96297" stroke="#3F444D" stroke-linecap="round" stroke-linejoin="round"/>
<path d="M9.27259 9.07406C11.2809 9.07406 12.909 7.41586 12.909 5.37036C12.909 3.32486 11.2809 1.66666 9.27259 1.66666C7.26429 1.66666 5.63623 3.32486 5.63623 5.37036C5.63623 7.41586 7.26429 9.07406 9.27259 9.07406Z" stroke="#3F444D" stroke-linecap="round" stroke-linejoin="round"/>
</svg>
