<?xml version="1.0" standalone="no"?>
<!DOCTYPE svg PUBLIC "-//W3C//DTD SVG 20010904//EN"
 "http://www.w3.org/TR/2001/REC-SVG-20010904/DTD/svg10.dtd">
<svg version="1.0" xmlns="http://www.w3.org/2000/svg"
 width="593.000000pt" height="593.000000pt" viewBox="0 0 593.000000 593.000000"
 preserveAspectRatio="xMidYMid meet">
<metadata>
Created by potrace 1.14, written by Peter Selinger 2001-2017
</metadata>
<g transform="translate(0.000000,593.000000) scale(0.100000,-0.100000)"
fill="#000000" stroke="none">
<path d="M2922 5178 c-8 -8 -10 -57 -7 -172 l5 -161 -43 165 -42 165 -60 0
-60 0 4 -230 c2 -126 7 -275 10 -330 l6 -100 43 -3 c70 -5 72 -1 67 171 l-5
152 35 -125 c19 -69 38 -138 42 -155 8 -28 12 -30 62 -33 30 -2 58 1 62 5 12
12 -9 634 -23 650 -13 16 -80 17 -96 1z"/>
<path d="M3312 5151 c-6 -3 -43 -147 -83 -319 -61 -262 -71 -315 -59 -322 28
-17 164 -42 199 -36 47 7 81 34 107 82 30 55 108 406 99 450 -8 44 -57 100
-98 113 -64 21 -155 39 -165 32z m133 -141 c9 -14 -86 -418 -100 -424 -28 -10
-34 9 -20 64 7 30 30 126 50 213 25 106 41 157 50 157 8 0 16 -4 20 -10z"/>
<path d="M2243 5067 c-18 -7 -37 -17 -43 -23 -17 -17 87 -644 108 -651 8 -3
35 1 60 9 l47 14 0 54 c0 44 3 54 20 61 31 12 31 12 50 -31 19 -43 29 -46 86
-30 72 20 72 17 -72 282 -72 134 -143 262 -156 286 -26 45 -42 50 -100 29z
m171 -415 c5 -13 1 -22 -10 -26 -9 -4 -19 -4 -22 -2 -2 3 -13 42 -23 88 -11
46 -22 92 -25 103 -6 22 71 -133 80 -163z"/>
<path d="M1795 4854 c-131 -85 -131 -85 -115 -123 20 -50 36 -58 76 -36 42 22
20 48 194 -227 90 -141 138 -208 150 -208 26 0 102 59 94 73 -17 30 -132 213
-205 325 -43 68 -79 127 -79 131 0 4 11 13 25 19 14 7 28 19 31 27 8 20 -36
85 -56 84 -8 0 -60 -30 -115 -65z"/>
<path d="M3990 4783 c-35 -54 -82 -127 -105 -163 -145 -224 -175 -272 -175
-285 0 -17 79 -77 94 -72 10 3 96 132 281 421 42 66 74 125 71 132 -5 14 -79
64 -95 64 -5 0 -37 -44 -71 -97z"/>
<path d="M4268 4572 c-257 -265 -318 -329 -337 -354 l-21 -27 31 -35 c17 -20
37 -36 44 -36 7 0 64 53 126 118 62 64 106 106 98 92 -88 -144 -149 -253 -149
-268 0 -20 63 -86 77 -81 20 8 438 452 441 467 1 10 -14 33 -34 52 l-36 35
-121 -125 c-67 -69 -114 -114 -106 -100 9 14 51 80 93 148 59 95 74 126 67
140 -9 17 -47 54 -67 65 -6 4 -53 -37 -106 -91z"/>
<path d="M1389 4527 c-71 -48 -95 -118 -66 -190 8 -18 40 -56 72 -85 l58 -54
118 4 117 3 39 -31 c43 -35 56 -74 26 -74 -11 0 -34 16 -53 35 -19 19 -39 35
-45 35 -16 0 -75 -63 -75 -81 0 -20 78 -95 113 -108 65 -25 132 -1 178 62 33
46 39 109 14 156 -20 39 -122 129 -154 136 -14 3 -66 1 -116 -4 -49 -5 -97 -5
-105 -1 -33 18 -73 69 -66 86 5 14 13 11 50 -20 25 -20 48 -36 53 -36 5 0 27
18 48 40 l39 40 -39 41 c-22 22 -52 47 -67 55 -41 21 -100 18 -139 -9z"/>
<path d="M0 3245 l0 -335 555 0 555 0 0 -110 0 -109 -472 -3 c-465 -3 -474 -3
-514 -25 -53 -28 -100 -83 -113 -130 -16 -56 -14 -62 21 -68 18 -3 319 -4 668
-3 l635 3 3 333 2 332 -537 0 c-296 0 -548 3 -561 6 -22 6 -23 9 -20 113 l3
106 486 5 486 5 46 35 c52 40 84 89 89 140 l3 35 -667 3 -668 2 0 -335z"/>
<path d="M1890 3026 l0 -554 23 -6 c12 -3 61 -6 110 -6 l87 0 0 560 0 560
-110 0 -110 0 0 -554z"/>
<path d="M2660 3245 l0 -335 560 0 560 0 0 -110 0 -109 -477 -3 c-444 -3 -480
-4 -513 -22 -68 -36 -109 -89 -124 -162 -7 -29 -5 -32 25 -38 17 -3 319 -6
670 -6 l639 0 0 335 0 335 -539 0 c-297 0 -546 3 -555 6 -13 5 -16 25 -16 115
l0 109 472 0 c458 0 473 1 515 21 51 25 96 76 112 128 23 78 89 71 -659 71
l-670 0 0 -335z"/>
<path d="M4555 3543 c16 -85 72 -153 143 -173 25 -8 201 -10 543 -8 l506 3 42
29 c47 33 85 92 95 149 l7 37 -672 0 -671 0 7 -37z"/>
<path d="M4550 2800 l0 -329 33 -6 c17 -3 318 -4 667 -3 l635 3 3 333 2 332
-115 0 -115 0 0 -220 0 -220 -445 0 -445 0 0 220 0 220 -110 0 -110 0 0 -330z"/>
<path d="M4087 1975 c-48 -57 -87 -108 -87 -113 0 -4 16 -24 36 -43 l35 -34
30 33 30 33 28 -23 c16 -13 107 -89 202 -169 96 -80 179 -148 186 -152 14 -9
83 61 83 85 0 10 -80 84 -187 175 -253 212 -227 185 -203 215 11 15 20 32 20
40 0 16 -52 58 -73 58 -7 0 -52 -47 -100 -105z"/>
<path d="M1635 2056 c-17 -7 -55 -35 -84 -62 -59 -55 -69 -85 -70 -216 -1 -65
-2 -67 -43 -102 -23 -20 -47 -36 -54 -36 -31 0 -23 25 22 64 l48 43 -33 41
c-18 23 -40 42 -50 42 -23 0 -98 -65 -116 -101 -18 -33 -19 -92 -4 -122 21
-41 73 -87 109 -97 51 -14 92 1 158 55 82 66 92 90 92 207 l0 97 45 37 c36 29
48 35 58 25 9 -10 3 -20 -31 -49 -23 -20 -42 -41 -42 -45 0 -16 65 -87 80 -87
30 0 107 83 119 127 14 53 8 80 -31 128 -50 60 -111 78 -173 51z"/>
<path d="M1916 1807 c-15 -19 -26 -38 -26 -42 0 -5 14 -20 30 -34 l30 -26 -67
-85 c-37 -47 -111 -140 -165 -207 -54 -68 -98 -129 -98 -137 0 -19 66 -76 88
-76 10 1 84 86 182 210 90 116 167 210 171 210 3 0 14 -9 24 -20 10 -11 26
-20 36 -20 19 0 59 49 59 73 0 16 -210 187 -229 187 -5 0 -21 -15 -35 -33z"/>
<path d="M3907 1803 c-20 -14 -37 -32 -37 -39 0 -8 69 -111 154 -231 84 -120
151 -223 149 -230 -3 -7 -11 -13 -19 -13 -15 0 -37 29 -209 273 -65 92 -124
167 -130 167 -16 0 -95 -58 -95 -69 0 -8 115 -174 270 -389 87 -120 150 -140
242 -76 49 34 68 70 68 127 0 49 -5 58 -210 345 -63 89 -122 162 -130 162 -8
0 -32 -12 -53 -27z"/>
<path d="M2127 1413 c-185 -281 -217 -332 -217 -341 0 -14 97 -55 114 -49 9 4
23 22 32 41 16 32 19 33 43 23 14 -6 27 -12 29 -13 2 -1 -2 -20 -9 -43 -15
-50 -6 -63 58 -87 36 -14 46 -15 53 -5 9 15 160 609 160 629 0 11 -96 62 -116
62 -2 0 -69 -98 -147 -217z m70 -144 c-26 -77 -35 -94 -50 -91 -10 2 -17 9
-15 15 4 17 92 176 95 173 2 -1 -12 -45 -30 -97z"/>
<path d="M3509 1587 c-49 -26 -79 -73 -79 -124 0 -17 35 -125 77 -240 64 -174
83 -214 114 -246 32 -33 42 -37 85 -37 97 0 174 64 174 146 0 41 -133 411
-164 459 -43 65 -129 83 -207 42z m100 -124 c37 -80 141 -379 136 -391 -3 -7
-12 -12 -21 -10 -17 3 -168 394 -159 415 8 22 31 14 44 -14z"/>
<path d="M2555 1508 c-2 -7 -31 -150 -64 -318 -67 -341 -68 -332 11 -334 l43
-1 30 150 30 150 6 -70 c4 -39 7 -109 8 -157 1 -98 4 -102 79 -114 40 -6 41
-6 50 32 27 107 113 574 110 595 -2 18 -12 25 -43 31 -21 5 -44 7 -50 4 -7 -2
-22 -53 -34 -113 -48 -239 -49 -239 -50 -46 -1 193 2 184 -78 198 -32 5 -44 3
-48 -7z"/>
<path d="M2968 1473 c-25 -2 -48 -9 -51 -16 -9 -25 44 -641 56 -649 11 -7 89
-4 164 8 38 6 88 45 108 85 18 34 18 95 1 306 -15 183 -29 219 -97 253 -38 20
-67 22 -181 13z m126 -111 c8 -14 38 -421 31 -432 -5 -9 -34 -15 -36 -7 -5 22
-33 439 -30 443 7 7 29 5 35 -4z"/>
</g>
</svg>
