<svg width="114" height="71" viewBox="0 0 114 71" fill="none" xmlns="http://www.w3.org/2000/svg">
<g clip-path="url(#clip0_17_242)">
<path fill-rule="evenodd" clip-rule="evenodd" d="M47.4899 22.75C46.8199 23.33 46.1299 23.73 45.5099 24.28C44.9499 24.77 44.2599 25.48 43.8099 26.06C42.7299 27.48 41.9599 28.79 41.7599 31.1C41.7299 31.73 41.6699 32.61 41.9699 33.11C42.6799 33.04 43.1299 32.58 43.7499 32.36L44.0599 32.11C44.1799 32.03 44.2099 32.02 44.3199 31.94C48.3799 29.26 47.7099 27.64 50.5099 24.58C50.4199 22.53 54.1499 18.56 55.1999 18.28C56.1899 18.01 57.6799 19.99 58.0699 20.76C58.9899 22.58 58.7199 23.35 58.4999 25.37C58.0199 29.77 61.1899 34.12 58.0099 39.21C56.7599 41.21 56.0699 41.53 55.5899 42.26C54.5199 42.23 52.0299 40.85 51.0499 40.34C49.7199 39.65 48.0999 38.84 46.5499 38.51C46.1899 37.21 46.4799 35.43 46.6099 34.12L46.3699 33.85C46.0799 33.85 46.2999 33.79 46.0699 33.9C45.7599 34.67 45.4599 35.3 45.1999 36.2C45.0699 36.66 44.9799 37 44.8699 37.46C44.6999 38.14 44.8799 38.01 44.3999 38.45C44.1499 38.68 43.9499 39.08 43.7299 39.37L42.2199 41.02C41.9799 41.23 41.6999 41.47 41.6899 41.93L43.3399 41.89C47.3299 41.57 49.3299 41.93 52.7299 43.04C54.2199 43.53 55.5499 43.89 57.3499 43.91C58.3799 43.92 58.9099 43.82 59.7599 43.62C60.4299 43.46 61.7299 43.62 62.2099 43.29C62.1199 42.31 60.0999 42.35 59.3199 42.37C59.8799 40.49 60.2599 40.79 60.9099 37.42C61.2499 35.04 61.0799 33.79 61.0199 31.47C61.1299 31.56 61.0999 31.52 61.2099 31.63L62.0899 32.86C63.6299 35.09 63.3799 36.82 64.2099 37.73C64.4799 37.63 64.3999 37.75 64.5799 37.43L64.9599 36.23C65.0899 35.7 65.2299 35.05 65.3199 34.48C65.7199 31.97 65.0399 29.74 63.7699 27.7C62.3199 25.38 59.9699 20.8 61.6599 18.17C62.3799 17.04 65.1199 16.69 66.6899 16.99C67.3899 17.13 67.7199 17.36 68.3399 17.52C68.3099 16.33 66.9299 15.94 65.6999 15.24C63.3199 13.9 64.7399 14.45 63.2899 12.9C61.6499 11.16 58.4599 10.61 56.4899 12.57C55.9999 13.06 55.8099 13.32 55.4199 13.93C55.0799 14.47 54.8299 14.94 54.5399 15.47C53.0199 18.18 50.2599 21.26 47.4899 22.75ZM60.9399 13.77C61.3399 13.41 62.1499 13.59 62.0899 14.45C61.5299 14.73 60.8599 14.61 60.9399 13.77Z" fill="black"/>
<path fill-rule="evenodd" clip-rule="evenodd" d="M26.32 42.68H29.23L28 39.45C25.18 30.78 26.73 22.19 31.54 14.84C32.44 13.47 34.38 11.28 35.64 10.09C36.94 8.86001 39.15 7.27001 40.76 6.36001C54.2 -1.23999 69.96 3.38001 77.82 14.91C82.69 22.06 84.09 31.02 81.29 39.53C81.1 40.11 80.91 40.59 80.7 41.15C80.51 41.66 80.19 42.18 80.1 42.68H83.01C83.06 42.2 83.93 40.07 84.17 39.24C84.53 38.01 84.82 36.7 85.02 35.35C86.96 22.43 80.74 10.31 69.71 3.94001C65.65 1.60001 60.36 6.09331e-06 54.72 6.09331e-06C38.48 -0.00999391 26.21 12.29 24.27 26.43C22.96 36 26.18 41.22 26.32 42.68Z" fill="#FF9800"/>
<path fill-rule="evenodd" clip-rule="evenodd" d="M26.52 68.6V70.92L29.97 70.97C30.09 68.96 30.07 48 29.9 47.58L26.57 47.59C26.41 48.28 26.53 67.29 26.52 68.6ZM26.68 47.72H29.92V70.84H26.65L26.68 47.72ZM26.64 70.84H29.91V47.72H26.67L26.64 70.84ZM46.1 70.97H54.53L54.55 68.09H49.51L49.49 60.35L53.95 60.32L53.99 57.52L49.53 57.49L49.5 50.43L54.5 50.4L54.57 47.57H46.09L46.1 70.97ZM34.8 47.99C34.38 48.47 33.14 48.7 33.01 51.2C32.93 52.82 33 54.63 33 56.26C33 59.63 33 63.01 33 66.38C33 70.78 35.09 70.92 38.63 70.92C43.71 70.92 43.25 68.57 43.41 65.46H40.03C39.8 66.7 40.34 67.94 38.84 68.08C37.31 68.23 36.44 68.13 36.41 66.59C36.38 64.95 36.32 51.65 36.52 51.11C36.94 49.99 39.14 50.4 39.53 50.7C40.28 51.29 39.93 53.1 39.99 54.17H43.37C43.71 48.9 42.8 47.57 38.41 47.57C36.72 47.58 36.34 47.6 34.8 47.99ZM3.4 70.89L3.42 62.47C6.06 62.47 8.7 62.8 9.82 60.86C10.68 59.37 10.36 55.39 10.36 53.42C10.36 50.62 10.39 48.55 7.96 47.82C6.47 47.37 2.14 47.59 0.24 47.58L0.02 47.6L0 70.89H3.4ZM3.45 59.64L3.42 50.41C4.59 50.41 6.42 50.14 6.82 51.09C7.04 51.61 7.02 58.44 6.84 58.93C6.48 59.94 4.69 59.64 3.45 59.64ZM13.07 70.97L16.48 70.92L16.5 61.5C19.05 61.5 18.45 60.97 19.12 63.78C19.64 65.97 20.26 68.92 20.83 70.93H23.89C24.12 70.74 23.93 71 24 70.6C23.84 70.2 23.7 69.65 23.71 69.19C23.48 68.92 21.74 61.91 21.71 61.22C22.71 60.59 23.27 60.14 23.56 58.78C23.78 57.74 23.8 51.26 23.56 50.26C23.1 48.26 22.08 48.26 21.58 47.78L20.51 47.61L13.09 47.58L13.07 70.97ZM16.5 50.41C18.97 50.41 20.28 50.05 20.28 52.25C20.28 59.27 20.87 58.82 16.51 58.83L16.5 58.37V50.41Z" fill="#FF9800"/>
<path fill-rule="evenodd" clip-rule="evenodd" d="M43.75 32.36C44.19 32.51 44.59 32.81 44.9 32.99C45.36 33.26 45.57 33.41 46.06 33.65L46.07 33.91C46.3 33.81 46.08 33.86 46.37 33.86L46.61 34.13C47.02 34.15 47.86 34.74 48.28 34.99C48.7 35.25 49.4 35.73 49.88 35.9L54.84 33.08L54.18 26.85C53.57 26.47 50.83 24.94 50.52 24.59C47.72 27.65 48.39 29.27 44.33 31.95C44.22 32.02 44.19 32.04 44.07 32.12L43.75 32.36ZM52.69 31.02C53.8 30.61 53.88 32.45 53.05 32.78C52.01 33.2 51.68 31.39 52.69 31.02Z" fill="#FF9800"/>
<path fill-rule="evenodd" clip-rule="evenodd" d="M40.51 21.36L41.52 19.37L44.48 21.09C45.04 21.42 45.4 21.64 45.94 21.95C46.31 22.17 47.1 22.77 47.5 22.75C50.26 21.27 53.03 18.19 54.53 15.49C54.82 14.96 55.07 14.49 55.41 13.95C55.8 13.34 55.99 13.08 56.48 12.59C58.45 10.63 61.64 11.18 63.28 12.92C64.74 14.47 63.32 13.92 65.69 15.26C66.92 15.95 68.29 16.35 68.33 17.54C67.72 17.38 67.39 17.15 66.68 17.01C65.11 16.7 62.38 17.06 61.65 18.19C59.96 20.82 62.31 25.4 63.76 27.72C65.04 29.76 65.71 32 65.31 34.5C65.22 35.07 65.07 35.72 64.95 36.25L64.57 37.45C64.39 37.77 64.47 37.65 64.2 37.75C63.37 36.83 63.62 35.1 62.08 32.88L61.2 31.65C61.09 31.54 61.12 31.57 61.01 31.49C61.07 33.81 61.24 35.06 60.9 37.44C61.14 37.52 64.12 39.48 67.39 40.63C70.92 41.87 71.99 41.77 75.37 42.32L76.42 42.37C77.02 41.65 77.91 39.19 78.26 38.09C78.76 36.55 79.11 34.79 79.26 33.08C80.93 15.22 63.73 1.83001 47.31 7.12001C43.41 8.37001 41.27 9.81001 38.53 12.03C37.33 13 34.06 16.53 33.77 17.68C34.8 18.09 39.52 20.55 40.51 21.36Z" fill="#1AA0D5"/>
<path fill-rule="evenodd" clip-rule="evenodd" d="M93.9401 70.9C96.3701 70.61 97.5601 69.62 97.9801 67.26C98.1701 66.18 98.3801 65.05 98.5801 63.96C98.7301 63.1 98.96 61.43 99.2 60.69C99.47 58.44 101.17 51.74 100.81 50.03C100.43 48.24 99.0401 47.63 97 47.58C95.23 47.53 92.6 47.46 90.89 47.6C90.74 47.87 86.6501 69.61 86.5801 70.93L93.9401 70.9ZM57.3 67.68C57.31 70.21 58.58 70.92 61.07 70.92C67.31 70.93 67.2201 69.46 68.2601 63.96C68.4101 63.14 68.72 61.82 68.74 61C68.78 59.36 66.17 58.43 64.95 57.75C62.35 56.3 62.63 56.87 63.3 53.32C63.48 52.37 63.5201 51.25 64.18 50.72C64.7901 50.24 66.5701 50.23 66.9701 50.88C67.3101 51.44 66.77 53.08 66.74 53.85C70.25 53.85 70.0801 54.1 70.2201 53.3C70.5001 51.77 71.08 49.72 70.02 48.57C69.42 47.92 68.72 47.66 67.6101 47.59C66.7101 47.53 65.59 47.55 64.64 47.59C64.13 47.61 63.8 47.66 63.51 47.75C62.15 48.22 61.15 48.62 60.48 50.51C60.02 51.82 59.71 54.2 59.44 55.69C58.92 58.54 59.35 58.62 61.3 59.72C62.44 60.36 64.2001 61.21 65.0501 62.04C65.1301 62.91 64.5301 65.71 64.3301 66.7C64.1601 67.52 63.8301 68 62.9701 68.08C59.9201 68.4 61.0201 66.78 61.0201 65.46L57.6301 65.49L57.3 67.68ZM102.25 60.01C102.43 60.87 100.47 69.15 100.37 70.93H108.81L109.36 68.1L104.32 68.09C104.37 66.98 104.8 65.22 105.01 64.07C105.13 63.41 105.25 62.77 105.38 62.1C105.86 59.63 104.93 60.44 109.76 60.33C110.17 60.32 110.18 60.34 110.27 59.95L110.69 57.49H106.28C106.24 56.74 107.33 51.76 107.5 50.41L112.58 50.42L113.08 47.58H104.8C104.5 47.75 104.71 47.4 104.55 47.9L102.25 60.01ZM70.4101 67.73C70.2301 68.68 69.9401 69.95 69.8601 70.9L77.93 70.92L78.49 68.09H73.8001L77.53 47.58L74.13 47.59L73.14 52.84C72.26 57.81 71.3401 62.77 70.4101 67.73ZM80.43 67.59C80.5501 68.22 80.07 70.21 79.88 70.93H83.32L87.6101 47.61L84.18 47.58C84.17 47.65 80.7501 66.92 80.4801 67.51C80.4701 67.53 80.4501 67.56 80.43 67.59ZM93.71 50.42C98.26 50.41 97.8901 49.31 95.9801 59.48C95.6101 61.46 95.2701 63.45 94.89 65.44C94.32 68.42 94.68 68.08 90.49 68.09L93.71 50.42Z" fill="#1AA0D5"/>
<path fill-rule="evenodd" clip-rule="evenodd" d="M40.51 21.36L37.26 28.44C37.98 28.89 38.74 29.31 39.5 29.75C40.31 30.22 41.02 30.71 41.77 31.09C41.97 28.78 42.74 27.47 43.82 26.05C44.26 25.47 44.96 24.76 45.52 24.27C46.14 23.72 46.83 23.32 47.5 22.74C47.1 22.76 46.31 22.16 45.94 21.94C45.4 21.62 45.04 21.41 44.48 21.08L41.52 19.36L40.51 21.36Z" fill="#FF9800"/>
</g>
<defs>
<clipPath id="clip0_17_242">
<rect width="113.08" height="70.97" fill="white"/>
</clipPath>
</defs>
</svg>
