<?xml version="1.0" standalone="no"?>
<!DOCTYPE svg PUBLIC "-//W3C//DTD SVG 20010904//EN"
 "http://www.w3.org/TR/2001/REC-SVG-20010904/DTD/svg10.dtd">
<svg version="1.0" xmlns="http://www.w3.org/2000/svg"
 width="263.000000pt" height="263.000000pt" viewBox="0 0 263.000000 263.000000"
 preserveAspectRatio="xMidYMid meet">
<metadata>
Created by potrace 1.14, written by Peter Selinger 2001-2017
</metadata>
<g transform="translate(0.000000,263.000000) scale(0.100000,-0.100000)"
fill="#000000" stroke="none">
<path d="M1446 1736 c-52 -19 -91 -58 -134 -135 -19 -35 -61 -96 -93 -136 -55
-67 -91 -99 -214 -188 -128 -91 -203 -206 -213 -323 -6 -82 7 -88 85 -39 82
52 128 100 174 177 21 36 50 79 62 95 13 15 27 42 31 58 17 71 151 225 195
225 28 0 89 -64 113 -118 17 -39 19 -57 13 -141 -5 -78 -3 -119 15 -216 28
-150 23 -238 -15 -319 -33 -69 -110 -166 -133 -166 -10 0 -83 31 -162 70 -80
38 -153 70 -162 70 -30 0 -40 36 -33 116 5 48 4 74 -3 74 -12 0 -38 -62 -48
-115 -4 -25 -28 -64 -70 -116 -35 -43 -64 -79 -64 -81 0 -2 66 -3 148 -3 141
0 152 -2 277 -39 129 -38 131 -39 250 -32 65 3 124 11 129 16 16 16 -12 30
-62 30 -40 0 -43 2 -36 23 3 12 12 33 19 47 28 54 38 111 44 240 l6 135 33
-50 c18 -27 42 -79 53 -115 11 -36 24 -72 29 -80 9 -13 11 -13 20 0 12 20 40
141 40 177 0 57 -32 150 -79 233 -66 116 -93 192 -95 265 -1 73 19 110 71 132
42 17 146 20 186 4 22 -8 27 -8 27 4 0 16 -32 39 -107 80 -29 16 -53 32 -53
36 0 17 -55 71 -90 89 -53 27 -108 33 -154 16z m153 -95 c8 -14 7 -20 -2 -24
-20 -7 -37 4 -37 24 0 25 26 25 39 0z"/>
</g>
</svg>
