<?xml version="1.0" standalone="no"?>
<!DOCTYPE svg PUBLIC "-//W3C//DTD SVG 20010904//EN"
 "http://www.w3.org/TR/2001/REC-SVG-20010904/DTD/svg10.dtd">
<svg version="1.0" xmlns="http://www.w3.org/2000/svg"
 width="700.000000pt" height="700.000000pt" viewBox="0 0 700.000000 700.000000"
 preserveAspectRatio="xMidYMid meet">
<metadata>
Created by potrace 1.14, written by Peter Selinger 2001-2017
</metadata>
<g transform="translate(0.000000,700.000000) scale(0.100000,-0.100000)"
fill="#000000" stroke="none">
<path d="M5007 6405 c-12 -6 -23 -19 -24 -30 0 -11 -4 -63 -7 -115 -4 -52 -8
-120 -11 -150 -2 -30 -7 -102 -10 -160 -4 -58 -8 -125 -10 -150 -2 -25 -7 -92
-10 -150 -4 -58 -8 -127 -10 -155 -2 -27 -6 -95 -9 -150 -4 -55 -8 -122 -11
-150 -2 -27 -7 -102 -11 -165 -4 -63 -8 -126 -9 -140 -2 -14 -3 -35 -4 -47 -1
-16 -21 -32 -84 -67 -352 -191 -686 -486 -1057 -933 -39 -46 -179 -242 -234
-328 -32 -49 -66 -101 -76 -115 -9 -14 -43 -72 -75 -130 -116 -209 -95 -185
-159 -184 l-57 0 -80 143 c-206 368 -436 676 -729 973 -258 262 -483 438 -726
569 -81 44 -94 54 -95 77 0 15 -2 41 -3 57 -2 17 -7 80 -11 140 -4 61 -8 126
-10 145 -2 19 -7 78 -10 130 -4 52 -8 111 -10 130 -2 19 -6 82 -10 140 -4 58
-8 121 -10 140 -2 19 -6 78 -10 130 -3 52 -8 115 -10 140 -3 25 -7 83 -10 130
-3 47 -8 117 -11 155 -4 39 -7 79 -8 89 -2 40 -29 42 -153 11 -65 -16 -122
-30 -128 -31 -9 -1 -161 -36 -175 -39 -99 -26 -91 7 -75 -315 3 -74 8 -171 10
-215 2 -44 7 -129 10 -190 3 -60 8 -159 10 -220 3 -60 8 -141 10 -180 2 -38 7
-138 10 -222 6 -141 6 -154 -13 -180 -11 -15 -30 -46 -42 -68 -184 -324 -269
-630 -273 -977 -2 -130 6 -295 16 -343 3 -11 8 -42 11 -70 10 -71 50 -227 81
-315 49 -135 154 -337 227 -435 136 -183 321 -337 448 -375 171 -50 378 -60
530 -25 14 4 38 9 54 11 94 17 306 116 406 190 34 25 73 49 87 55 85 32 158
-62 112 -147 -24 -46 -216 -168 -364 -231 -239 -102 -497 -130 -743 -82 -30 6
-55 9 -57 7 -2 -2 7 -40 21 -83 27 -84 67 -262 80 -355 10 -70 11 -436 2 -515
-7 -58 -22 -162 -34 -235 -3 -19 -12 -66 -21 -105 -8 -38 -16 -79 -18 -90 -4
-20 0 -20 1853 -19 1021 1 1861 2 1865 3 5 0 6 4 3 9 -6 10 -77 330 -82 372
-3 19 -7 42 -9 50 -3 8 -7 38 -11 65 -3 27 -7 52 -9 55 -17 28 -25 459 -12
605 10 98 26 224 33 247 4 15 0 15 -48 3 -50 -13 -85 -19 -172 -30 -62 -8
-177 -8 -256 0 -82 8 -299 60 -314 75 -6 6 -17 10 -25 10 -22 0 -177 77 -256
127 -114 73 -153 110 -161 147 -12 64 37 126 99 126 12 0 61 -27 108 -60 219
-151 462 -230 694 -224 88 2 136 8 244 29 222 43 490 290 645 595 79 155 168
426 191 580 4 25 11 70 15 100 10 69 10 355 0 412 -4 24 -11 62 -14 85 -28
212 -154 547 -295 788 -39 66 -41 74 -37 130 3 33 8 101 11 150 8 117 14 209
20 293 8 110 15 222 20 307 4 73 10 159 20 290 2 28 7 97 10 155 4 58 8 121
10 140 4 46 -18 80 -53 80 -22 0 -124 20 -289 55 -12 3 -60 18 -108 33 -69 23
-90 26 -108 17z"/>
</g>
</svg>
